<svg width="170" height="200" viewBox="0 0 170 200" fill="none" xmlns="http://www.w3.org/2000/svg">
<rect width="170" height="200" fill="#31A20A"/>
<rect x="10" y="11" width="148" height="180" fill="#BB1818"/>
<rect x="25" y="29" width="116" height="146" fill="#4AB538"/>
<path d="M39.9375 83H42.25L47.6875 96.2812H47.875L53.3125 83H55.625V99H53.8125V86.8438H53.6563L48.6562 99H46.9063L41.9063 86.8438H41.75V99H39.9375V83ZM64.291 99.25C63.1348 99.25 62.1374 98.9948 61.2988 98.4844C60.4655 97.9688 59.8223 97.25 59.3691 96.3281C58.9212 95.401 58.6973 94.3229 58.6973 93.0938C58.6973 91.8646 58.9212 90.7812 59.3691 89.8437C59.8223 88.901 60.4525 88.1667 61.2598 87.6406C62.0723 87.1094 63.0202 86.8438 64.1035 86.8438C64.7285 86.8438 65.3457 86.9479 65.9551 87.1562C66.5645 87.3646 67.1191 87.7031 67.6191 88.1719C68.1191 88.6354 68.5176 89.25 68.8145 90.0156C69.1113 90.7812 69.2598 91.724 69.2598 92.8437V93.625H60.0098V92.0312H67.3848C67.3848 91.3542 67.2493 90.75 66.9785 90.2187C66.7129 89.6875 66.3327 89.2682 65.8379 88.9609C65.3483 88.6536 64.7702 88.5 64.1035 88.5C63.3691 88.5 62.7337 88.6823 62.1973 89.0469C61.666 89.4062 61.2572 89.875 60.9707 90.4531C60.6842 91.0312 60.541 91.651 60.541 92.3125V93.375C60.541 94.2813 60.6973 95.0495 61.0098 95.6797C61.3275 96.3047 61.7676 96.7812 62.3301 97.1094C62.8926 97.4323 63.5462 97.5938 64.291 97.5938C64.7754 97.5938 65.2129 97.526 65.6035 97.3906C65.9993 97.25 66.3405 97.0417 66.627 96.7656C66.9134 96.4844 67.1348 96.1354 67.291 95.7187L69.0723 96.2188C68.8848 96.8229 68.5697 97.3542 68.127 97.8125C67.6842 98.2656 67.1374 98.6198 66.4863 98.875C65.8353 99.125 65.1035 99.25 64.291 99.25ZM72.0645 99V87H73.8457V88.875H74.002C74.252 88.2344 74.6556 87.737 75.2129 87.3828C75.7702 87.0234 76.4395 86.8438 77.2207 86.8438C78.0124 86.8438 78.6712 87.0234 79.1973 87.3828C79.7285 87.737 80.1426 88.2344 80.4395 88.875H80.5645C80.8717 88.2552 81.3327 87.763 81.9473 87.3984C82.5618 87.0286 83.2988 86.8438 84.1582 86.8438C85.2311 86.8438 86.1087 87.1797 86.791 87.8516C87.4733 88.5182 87.8145 89.5573 87.8145 90.9687V99H85.9707V90.9687C85.9707 90.0833 85.7285 89.4505 85.2441 89.0703C84.7598 88.6901 84.1895 88.5 83.5332 88.5C82.6895 88.5 82.0358 88.7552 81.5723 89.2656C81.1087 89.7708 80.877 90.4115 80.877 91.1875V99H79.002V90.7812C79.002 90.099 78.7806 89.5495 78.3379 89.1328C77.8952 88.7109 77.3249 88.5 76.627 88.5C76.1478 88.5 75.6999 88.6276 75.2832 88.8828C74.8717 89.138 74.5384 89.4922 74.2832 89.9453C74.0332 90.3932 73.9082 90.9115 73.9082 91.5V99H72.0645ZM96.0605 99.25C94.9772 99.25 94.0267 98.9922 93.209 98.4766C92.3965 97.9609 91.7611 97.2396 91.3027 96.3125C90.8496 95.3854 90.623 94.3021 90.623 93.0625C90.623 91.8125 90.8496 90.7214 91.3027 89.7891C91.7611 88.8568 92.3965 88.1328 93.209 87.6172C94.0267 87.1016 94.9772 86.8438 96.0605 86.8438C97.1439 86.8438 98.0918 87.1016 98.9043 87.6172C99.722 88.1328 100.357 88.8568 100.811 89.7891C101.269 90.7214 101.498 91.8125 101.498 93.0625C101.498 94.3021 101.269 95.3854 100.811 96.3125C100.357 97.2396 99.722 97.9609 98.9043 98.4766C98.0918 98.9922 97.1439 99.25 96.0605 99.25ZM96.0605 97.5938C96.8835 97.5938 97.5605 97.3828 98.0918 96.9609C98.623 96.5391 99.0163 95.9844 99.2715 95.2969C99.5267 94.6094 99.6543 93.8646 99.6543 93.0625C99.6543 92.2604 99.5267 91.513 99.2715 90.8203C99.0163 90.1276 98.623 89.5677 98.0918 89.1406C97.5605 88.7135 96.8835 88.5 96.0605 88.5C95.2376 88.5 94.5605 88.7135 94.0293 89.1406C93.498 89.5677 93.1048 90.1276 92.8496 90.8203C92.5944 91.513 92.4668 92.2604 92.4668 93.0625C92.4668 93.8646 92.5944 94.6094 92.8496 95.2969C93.1048 95.9844 93.498 96.5391 94.0293 96.9609C94.5605 97.3828 95.2376 97.5938 96.0605 97.5938ZM104.313 99V87H106.094V88.8125H106.219C106.438 88.2188 106.833 87.737 107.406 87.3672C107.979 86.9974 108.625 86.8125 109.344 86.8125C109.479 86.8125 109.648 86.8151 109.852 86.8203C110.055 86.8255 110.208 86.8333 110.313 86.8438V88.7187C110.25 88.7031 110.107 88.6797 109.883 88.6484C109.664 88.612 109.432 88.5937 109.188 88.5937C108.604 88.5937 108.083 88.7161 107.625 88.9609C107.172 89.2005 106.813 89.5339 106.547 89.9609C106.286 90.3828 106.156 90.8646 106.156 91.4062V99H104.313ZM114.051 103.5C113.738 103.5 113.46 103.474 113.215 103.422C112.97 103.375 112.801 103.328 112.707 103.281L113.176 101.656C113.624 101.771 114.02 101.813 114.363 101.781C114.707 101.75 115.012 101.596 115.277 101.32C115.548 101.049 115.796 100.609 116.02 100L116.363 99.0625L111.926 87H113.926L117.238 96.5625H117.363L120.676 87H122.676L117.582 100.75C117.353 101.37 117.069 101.883 116.73 102.289C116.392 102.701 115.999 103.005 115.551 103.203C115.108 103.401 114.608 103.5 114.051 103.5Z" fill="#0E1767"/>
</svg>
